<svg width="436" height="222" viewBox="0 0 436 222" fill="none" xmlns="http://www.w3.org/2000/svg">
<path d="M127.025 102.391H136.379V100.107H136.514C136.577 99.972 136.577 99.901 136.577 99.829C136.577 98.795 135.885 97.958 135.129 97.958H135.543V96.789H136.02C136.308 96.789 136.578 96.24 136.578 95.61C136.578 94.926 136.308 94.369 136.02 94.369H128.761C128.482 94.369 128.276 94.927 128.276 95.61C128.276 96.24 128.483 96.789 128.761 96.789H129.247V97.958H69.921V96.789H70.262C70.551 96.789 70.82 96.24 70.82 95.61C70.82 94.926 70.551 94.369 70.262 94.369H62.995C62.725 94.369 62.518 94.927 62.518 95.61C62.518 96.24 62.725 96.789 62.995 96.789H63.553V97.958H62.923C62.231 97.958 61.619 98.66 61.548 99.559C61.476 99.695 61.476 99.766 61.476 99.83C61.476 99.902 61.476 99.974 61.548 100.108C61.755 101.421 62.312 102.392 62.923 102.392H72.475V100.108H72.898V105.433L78.915 108.069C78.294 107.447 77.602 106.746 77.602 106.746L78.915 108.069C81.613 110.775 80.3 116.173 80.3 120.881C78.915 137.628 78.294 147.036 80.921 163.784L82.108 164.071V167.111C82.108 167.867 85.211 168.496 88.953 168.496C92.766 168.496 95.807 167.867 95.807 167.111V163.927C96.014 163.864 96.221 163.864 96.365 163.783C99.063 154.446 98.371 141.638 98.371 130.908C97.058 114.166 93.739 107.446 104.46 105.432V100.107H106.124V102.391H115.541V100.107H117.196V102.391H124.814V100.107H127.026L127.025 102.391Z" fill="#010101"/>
<path d="M424.963 62.097H327.359V59.336C327.359 57.546 326.261 55.945 324.66 55.324V49.154C324.66 48.336 324.39 47.849 323.545 47.562V46.735C323.546 46.3893 323.48 46.0467 323.348 45.7269C323.217 45.407 323.024 45.1163 322.78 44.8714C322.536 44.6265 322.246 44.4321 321.926 44.2996C321.607 44.167 321.265 44.0989 320.919 44.099C319.48 44.099 318.364 45.277 318.364 46.735V47.22H316.206C316.206 46.735 315.792 46.248 315.234 46.248C314.838 46.248 314.478 46.59 314.335 46.94C313.993 45.276 312.752 41.067 309.299 41.067H297.12C292.461 41.067 291.022 43.694 291.022 47.705H289.906V41.193C289.835 37.38 286.795 34.268 282.927 34.268H277.171V33.719C277.171 32.198 276.272 31.641 276.272 31.641C269.346 32.747 262.637 37.326 262.637 37.326L264.022 40.437H265.263L266.936 45.619L264.921 47.705H255.44V45.566L252.058 43.353V42.093H241.175V43.281H238.549V42.093H227.612V43.281H224.971V42.093H214.044V43.281H211.481V42.093H200.544V43.281H199.708V37.596H226.636L232.523 34.898H236.678C236.949 35.321 237.308 35.59 237.577 35.59H240.905C242.29 35.59 243.46 30.535 243.46 24.32C243.46 18.14 242.29 13.087 240.905 13.087H237.577C237.307 13.087 236.948 13.293 236.678 13.788H231.839V2.995L230.454 0H222.553V3.185L221.312 0H196.11L194.59 3.185V3.265C194.59 1.466 193.412 0 192.035 0C190.641 0 189.463 1.466 189.463 3.265V5.55H174.236V11.028H173.345V13.789H171.951C171.537 12.197 171.052 11.234 170.503 11.234H167.184C166.69 11.234 166.267 11.926 165.862 13.088H163.712C162.947 10.606 162.057 9.086 160.951 9.086H155.609C153.333 9.086 151.526 16.002 151.526 24.591C151.526 33.172 153.334 40.169 155.609 40.169H160.951C161.787 40.169 162.543 39.198 163.236 37.597H165.862V36.068C166.267 37.328 166.69 38.011 167.184 38.011H170.503C170.916 38.011 171.268 37.462 171.609 36.563H173.345V37.597H174.236V42.094H173.408V43.282H169.946V42.239H159.917V43.282H155.96V47.779L142.045 49.227H96.849C96.22 46.807 93.45 44.937 90.059 44.937C86.677 44.937 83.898 46.807 83.349 49.227H56.699L54.963 50.199H35.725V43.696C37.938 36.014 35.725 27.776 35.725 27.776C31.147 27.083 27.9 27.776 27.9 27.776C22.845 34.215 23.961 43.696 23.961 43.696V50.199H24.24C24.24 50.199 21.191 55.883 23.961 62.8V68.412C23.961 68.412 23.745 68.97 23.475 69.995H1.601C0.691998 69.995 0 72.279 0 75.184C0 78.099 0.691998 80.374 1.601 80.374H23.331C23.475 81.138 23.672 81.902 23.96 82.658H30.598C31.012 88.971 32.613 94.224 36.561 94.224H156.446V93.451C158.524 93.739 161.708 94.422 164.136 96.446L163.083 106.618L161.572 107.788L161.221 109.109L162.741 109.658C162.264 112.429 161.923 114.299 161.923 114.299C161.923 114.299 154.161 160.256 125.919 209.275C125.919 209.275 125.164 210.516 127.169 211.694C129.103 212.8 139.968 219.726 142.261 220.905C144.546 222.011 146.066 220.068 146.066 220.068C174.317 171.049 182.061 125.161 182.061 125.161L184.615 119.697L183.302 119.22L183.86 116.648L186.829 117.619V117.556C186.91 117.619 186.981 117.619 186.981 117.691L186.829 118.312L190.228 118.861C191.334 119.067 192.306 119.22 192.72 119.283C193.278 123.29 194.456 130.638 195.085 131.385C195.984 132.357 196.389 130.981 196.389 130.981L195.768 119.563H204.007C205.113 120.592 206.219 122.194 206.984 124.406C209.062 130.36 211.76 138.114 213.487 141.909C215.223 145.723 218.47 147.305 227.737 147.305H242.902C248.172 147.305 247.47 143.168 253.497 142.808C255.638 142.673 257.167 142.953 258.21 143.366C265.136 158.809 272.528 178.048 276.954 188.642C282.639 185.189 287.207 183.588 293.017 179.235C298.144 175.836 303.342 172.651 308.469 169.188V165.797C301.13 156.596 272.061 115.057 282.566 105.091C285.965 103.85 289.221 103.355 291.092 103.22C294.618 102.949 295.86 100.378 296.075 99.829H309.565C310.177 99.829 310.807 99.766 311.365 99.694H312.408V99.477C313.307 99.136 313.991 98.587 314.279 97.553V98.237H318.362C318.362 99.083 319.477 99.694 320.917 99.694C322.374 99.694 323.543 99.083 323.543 98.237H330.954C334.084 98.237 333.797 95.394 333.797 95.394V87.299H329.155V85.716H333.526C339.48 85.716 340.847 89.17 345.291 91.868C349.717 94.504 407.027 135.962 414.708 141.008C422.479 145.991 431.33 148.564 433.83 143.095C436.385 137.699 428.434 109.174 435.413 75.607C437.484 61.899 433.274 62.097 424.963 62.097ZM38.432 62.519H36.696V62.042L38.432 61.97V62.519ZM254.324 136.934L243.802 143.365H224.972C219.306 143.365 217.094 142.196 215.223 136.934C213.352 131.601 211.967 127.724 210.438 121.977C210.159 121.005 210.096 120.177 210.231 119.562H229.896C242.217 129.937 228.438 140.666 231.137 140.811C233.835 140.937 237.019 138.382 238.89 134.443C240.76 130.486 240.005 122.948 240.005 121.698C240.005 120.457 241.102 119.562 241.102 119.562H243.117C244.7 120.25 246.157 120.933 247.399 122.193C249.414 124.954 251.841 129.667 254.54 135.27L254.324 136.934ZM271.9 39.198C271.018 39.198 270.245 38.433 270.245 37.534C270.245 36.635 271.018 35.941 271.9 35.941C272.818 35.941 273.573 36.634 273.573 37.534C273.573 38.434 272.818 39.198 271.9 39.198ZM408.288 109.533C408.288 110.432 408.288 112.294 408 113.058C407.658 112.986 406.831 112.699 405.373 111.745C395.265 104.532 374.703 90.267 374.487 90.141L374.433 90.069C370.205 87.298 369.432 85.365 369.594 84.744C369.791 84.115 371.249 83.359 373.048 83.359H403.017C404.257 83.359 406.902 83.359 407.585 83.845C407.801 84.115 408.287 84.942 408.287 88.206V109.533H408.288Z" fill="#010101"/>
</svg>
